<?xml version="1.0" encoding="iso-8859-1"?>
<!-- Generator: Adobe Illustrator 19.0.0, SVG Export Plug-In . SVG Version: 6.00 Build 0)  -->
<svg xmlns="http://www.w3.org/2000/svg" xmlns:xlink="http://www.w3.org/1999/xlink" version="1.1" id="Layer_1" x="0px" y="0px" viewBox="0 0 512 512" style="enable-background:new 0 0 512 512;" xml:space="preserve" width="512" height="512">
<g>
	<g>
		<path d="M452.93,228.799c-5.563,0-10.07,4.509-10.07,10.071v0.198c0,5.562,4.508,10.071,10.07,10.071    c5.561,0,10.07-4.509,10.07-10.071v-0.198C463,233.308,458.49,228.799,452.93,228.799z"/>
		<path d="M462.949,70.106c-0.228-2.292-1.271-4.489-2.899-6.117l-61.043-61.04C397.318,1.014,394.392,0,391.886,0H120.88    c-15.492,0-28.096,12.603-28.096,28.093v19.968H77.096C61.604,48.061,49,60.676,49,76.183v407.694    C49,499.384,61.604,512,77.096,512h313.998c15.507,0,28.122-12.616,28.122-28.123V463.91h15.662    c15.507,0,28.122-12.603,28.122-28.093V278.996c0-5.562-4.51-10.071-10.07-10.071c-5.563,0-10.07,4.509-10.07,10.071v156.821    c0,4.384-3.58,7.952-7.981,7.952H120.88c-4.387,0-7.955-3.567-7.955-7.952V28.093c0-4.384,3.568-7.952,7.955-7.952h260.936v32.917    c0,15.507,12.603,28.122,28.094,28.122h32.95v117.959c0,5.562,4.508,10.071,10.07,10.071c5.561,0,10.07-4.509,10.07-10.071V71.111    C463,70.773,462.982,70.438,462.949,70.106C462.925,69.861,462.982,70.438,462.949,70.106    C462.721,67.814,462.982,70.438,462.949,70.106z M120.88,463.91h278.195v19.967c0,4.4-3.58,7.981-7.981,7.981H77.096    c-4.387,0-7.954-3.581-7.954-7.981V76.183c0-4.4,3.567-7.98,7.954-7.98h15.688v367.614    C92.784,451.308,105.388,463.91,120.88,463.91z M409.909,61.04c-4.385,0-7.952-3.581-7.952-7.981V34.382l26.658,26.658H409.909z"/>
		<path d="M153.545,212.855v184.507c0,5.561,4.509,10.071,10.07,10.071h229.207c5.562,0,10.07-4.509,10.07-10.071V212.855    c0-5.562-4.509-10.071-10.07-10.071H163.615C158.054,202.785,153.545,207.294,153.545,212.855z M382.751,387.292h-94.464V361.3    h94.464V387.292z M382.751,341.158h-94.464v-25.992h94.464V341.158z M382.751,295.025h-94.464v-25.993h94.464V295.025z     M382.751,248.89h-94.464v-25.963h94.464V248.89z M173.686,222.927h94.46v25.963h-94.46V222.927z M173.686,269.032h94.46v25.993    h-94.46V269.032z M173.686,315.167h94.46v25.992h-94.46V315.167z M173.686,361.3h94.46v25.992h-94.46V361.3z"/>
		<path d="M402.893,114.92c0-5.562-4.509-10.071-10.07-10.071H267.024c-5.562,0-10.07,4.509-10.07,10.071v40.75    c0,5.562,4.509,10.071,10.07,10.071h125.798c5.562,0,10.07-4.509,10.07-10.071V114.92z M382.751,145.6H277.096v-20.608h105.655    V145.6z"/>
		<path d="M196.572,141.076c-4.166,0-9.324-0.623-12.838-4.534c-1.247-1.36-2.295-2.664-3.316-3.74    c-8.414-8.813-22.84,3.429-14.084,14.877l2.068,2.72c1.417,1.729,3.885,3.713,7.427,5.952c3.458,2.209,7.31,3.797,11.589,4.76    v11.25c0,12.044,18.961,13.291,18.961-0.85c0.141-1.162,0.197-2.494,0.197-4.053v-6.433c6.858-1.615,12.696-4.931,17.541-9.975    c4.82-5.044,7.227-11.759,7.227-20.119c0-5.696-1.076-10.429-3.286-14.254c-2.211-3.798-4.902-6.46-8.133-7.963    c-3.23-1.502-6.746-2.805-10.628-3.938c-3.854-1.134-7.396-1.927-10.627-2.409c-3.201-0.482-5.922-1.445-8.133-2.891    c-2.184-1.473-3.289-3.372-3.289-5.724c0-11.25,16.523-9.889,23.806-3.768c10.769,9.039,22.784-7.51,10.315-16.833l-1.444-1.303    c-0.965-0.737-2.692-1.701-5.158-2.891c-2.466-1.19-5.187-2.097-8.19-2.721v-2.323v-4.704v-3.967c0-12.469-18.987-12.469-18.987,0    v8.671v2.182c-6.97,1.36-12.752,4.817-16.747,9.947c-4.055,5.186-6.122,10.938-6.122,17.399c0,6.432,1.501,11.731,4.505,15.926    c3.006,4.194,6.66,7.141,10.938,8.841c4.309,1.729,8.589,3.089,12.897,4.109c4.277,1.021,7.934,2.183,10.938,3.458    c3.004,1.303,4.506,3.117,4.506,5.469C208.504,137.79,204.536,141.076,196.572,141.076z"/>
	</g>
</g>















</svg>
